<svg xmlns="http://www.w3.org/2000/svg" width="24" height="24" viewBox="0 0 24 24">
  <defs>
    <linearGradient id="grad1" x1="0%" y1="0%" x2="100%" y2="0%">
      <stop offset="0%" stop-color="#b6c0e6"/>
      <stop offset="100%" stop-color="#72f586" stop-opacity="0.925"/>
    </linearGradient>
  </defs>

  <g fill="none" stroke="url(#grad1)" stroke-width="1.5">
    <path d="M2 12c0-4.714 0-7.071 1.464-8.536C4.93 2 7.286 2 12 2s7.071 0 8.535 1.464C22 4.93 22 7.286 22 12s0 7.071-1.465 8.535C19.072 22 16.714 22 12 22s-7.071 0-8.536-1.465C2 19.072 2 16.714 2 12Z"/>
    <path stroke-linecap="round" d="M17 15h-5m-5-5l.234.195c1.282 1.068 1.923 1.602 1.923 2.305s-.64 1.237-1.923 2.305L7 15"/>
  </g>
</svg>
